<svg xmlns="http://www.w3.org/2000/svg" viewBox="0 0 512 512" role="img" aria-labelledby="title desc">
  <title id="title">AtendePix</title>
  <desc id="desc">Icone do aplicativo AtendePix</desc>
  <rect width="512" height="512" rx="96" fill="#11644f"/>
  <path fill="#dcebe3" d="M128 164c0-26.5 21.5-48 48-48h160c26.5 0 48 21.5 48 48v112c0 26.5-21.5 48-48 48h-66.7l-62.6 58.1c-10.3 9.6-26.7 2.3-26.7-11.8V324h-4c-26.5 0-48-21.5-48-48V164Z"/>
  <path fill="#11644f" d="M196 185h120c8.8 0 16 7.2 16 16s-7.2 16-16 16H196c-8.8 0-16-7.2-16-16s7.2-16 16-16Zm0 58h82c8.8 0 16 7.2 16 16s-7.2 16-16 16h-82c-8.8 0-16-7.2-16-16s7.2-16 16-16Z"/>
  <path fill="#ff7a59" d="M344 304c39.8 0 72 32.2 72 72s-32.2 72-72 72-72-32.2-72-72 32.2-72 72-72Z"/>
  <path fill="#fff7f4" d="M338 331c0-5.5 4.5-10 10-10s10 4.5 10 10v8.1c10.5 2.1 20.1 7.7 26.9 16.1 3.5 4.3 2.8 10.6-1.5 14.1s-10.6 2.8-14.1-1.5c-5-6.2-12.5-9.8-20.5-9.8h-7.7c-8.3 0-15 5-15 11.2 0 5.4 4.8 9.7 11.3 10.9l18.6 3.4c17.5 3.2 30 16 30 31.5 0 16.5-12 30.1-28 33.7v7.2c0 5.5-4.5 10-10 10s-10-4.5-10-10v-7.1c-13.9-2.8-26.2-11.1-33.9-23.2-3-4.7-1.6-10.8 3.1-13.8 4.7-3 10.8-1.6 13.8 3.1 5.5 8.6 15 13.9 25.2 13.9h7.7c8.3 0 15-5 15-11.2 0-5.4-4.8-9.7-11.3-10.9l-18.6-3.4c-17.5-3.2-30-16-30-31.5 0-16.8 12.4-30.6 29-33.9V331Z"/>
</svg>
